<svg width="48" height="48" viewBox="0 0 48 48" fill="none" xmlns="http://www.w3.org/2000/svg">
<g clip-path="url(#clip0)">
<path fill-rule="evenodd" clip-rule="evenodd" d="M29.2469 18.0935C27.9047 16.8133 26.1134 16.1159 24.26 16.1446C20.8685 16.1446 17.9881 18.4326 16.9611 21.5136V21.5137C16.4165 23.1283 16.4165 24.8766 16.9611 26.4911H16.9658C17.9976 29.5673 20.8732 31.8554 24.2648 31.8554C26.0155 31.8554 27.5184 31.4076 28.6833 30.6167V30.6135C30.0542 29.7059 30.9905 28.2776 31.2819 26.6631H24.26V21.657H36.522C36.6749 22.5264 36.7465 23.4149 36.7465 24.2986C36.7465 28.2526 35.3334 31.5955 32.8747 33.8597L32.8773 33.8617C30.723 35.8488 27.7661 37 24.26 37C19.3447 37 14.8497 34.2295 12.6429 29.8396V29.8396C10.799 26.1663 10.799 21.8385 12.6429 18.1652H12.6429L12.6429 18.1652C14.8497 13.7705 19.3447 11 24.26 11C27.4891 10.9618 30.6083 12.1751 32.9585 14.3819L29.2469 18.0935Z" fill="white"/>
</g>
<defs>
<clipPath id="clip0">
<rect width="26" height="26" fill="white" transform="translate(11 11)"/>
</clipPath>
</defs>
</svg>
